<?xml version="1.0" standalone="no"?>
<!DOCTYPE svg PUBLIC "-//W3C//DTD SVG 20010904//EN"
 "http://www.w3.org/TR/2001/REC-SVG-20010904/DTD/svg10.dtd">
<svg version="1.0" xmlns="http://www.w3.org/2000/svg"
 width="90.000000pt" height="90.000000pt" viewBox="0 0 90.000000 90.000000"
 preserveAspectRatio="xMidYMid meet">
<metadata>
Created by potrace 1.11, written by Peter Selinger 2001-2013
</metadata>
<g transform="translate(0.000000,90.000000) scale(0.100000,-0.100000)"
fill="#000000" stroke="none">
<path d="M766 868 c-46 -26 -110 -216 -141 -425 -10 -62 -21 -113 -25 -113 -9
0 -40 28 -40 36 0 3 9 22 20 44 11 22 20 45 20 52 0 7 -11 -9 -24 -37 -31 -67
-63 -94 -143 -121 -38 -13 -59 -23 -48 -24 11 0 47 11 79 25 44 18 64 21 78
14 42 -22 18 -35 -104 -53 -221 -33 -409 -103 -416 -154 -3 -18 5 -26 45 -45
41 -18 66 -22 164 -22 111 0 117 1 164 30 28 17 74 63 109 107 34 42 65 77 69
77 12 1 -74 -106 -123 -154 -65 -63 -47 -105 31 -70 55 25 94 73 109 133 16
70 71 127 128 135 24 3 54 12 67 21 37 24 75 81 82 120 5 33 4 36 -19 36 -15
0 -39 -15 -63 -41 -46 -47 -144 -124 -150 -118 -2 3 28 29 67 59 123 96 150
148 150 281 -1 133 -41 232 -86 207z m-16 -118 c0 -19 -5 -30 -14 -30 -19 0
-26 21 -14 43 14 27 28 20 28 -13z m76 -35 c8 -20 -4 -65 -17 -65 -15 0 -28
43 -17 63 11 21 27 22 34 2z m-100 -92 c7 -26 -4 -54 -23 -60 -17 -6 -23 24
-12 57 13 37 26 38 35 3z m79 -82 c0 -23 -31 -37 -49 -22 -13 11 -14 17 -4 28
14 17 53 13 53 -6z m-105 -105 c0 -31 -16 -50 -34 -43 -19 7 -22 57 -4 75 16
16 38 -3 38 -32z m140 -20 c0 -15 -37 -29 -52 -20 -13 9 12 34 33 34 11 0 19
-6 19 -14z m-75 -65 c0 -22 -32 -38 -46 -24 -9 9 -9 16 1 28 15 19 45 16 45
-4z m-255 -124 c0 -21 -47 -39 -71 -27 -37 20 -21 40 33 40 25 0 38 -5 38 -13z
m-173 -33 c5 -15 -41 -34 -66 -27 -23 6 -28 28 -8 37 20 8 70 2 74 -10z m232
-45 c-12 -24 -39 -25 -39 -1 0 27 21 44 37 31 9 -8 10 -16 2 -30z m-393 20 c7
-11 -12 -29 -31 -29 -5 0 -17 5 -25 10 -13 9 -13 11 0 20 20 13 47 13 56 -1z
m202 -49 c4 -27 -17 -44 -35 -28 -16 13 -17 30 -1 46 17 17 32 10 36 -18z
m-140 -32 c3 -14 -4 -18 -31 -18 -40 0 -51 8 -35 27 16 19 62 12 66 -9z m265
-2 c-6 -29 -31 -42 -39 -21 -7 17 12 45 31 45 8 0 10 -9 8 -24z"/>
<path d="M601 703 c0 -5 4 -17 9 -28 8 -18 9 -17 9 8 1 15 -3 27 -9 27 -5 0
-10 -3 -9 -7z"/>
<path d="M623 615 c0 -22 2 -30 4 -17 2 12 2 30 0 40 -3 9 -5 -1 -4 -23z"/>
<path d="M611 550 c-1 -14 -4 -36 -6 -50 l-6 -25 11 25 c6 13 9 36 7 50 l-4
25 -2 -25z"/>
<path d="M180 280 c0 -5 21 -10 47 -10 55 0 54 5 -4 14 -27 4 -43 2 -43 -4z"/>
<path d="M298 273 c12 -2 32 -2 45 0 12 2 2 4 -23 4 -25 0 -35 -2 -22 -4z"/>
<path d="M642 242 c-18 -19 -31 -36 -29 -38 6 -7 56 36 67 57 16 29 -1 21 -38
-19z"/>
<path d="M664 225 l-40 -42 40 -46 c23 -26 49 -47 59 -47 24 0 77 53 77 77 0
11 -15 33 -32 49 -59 54 -59 54 -104 9z"/>
<path d="M787 99 c-21 -22 -33 -41 -27 -44 12 -7 80 56 80 74 0 18 -13 11 -53
-30z"/>
<path d="M817 76 c-15 -15 -25 -31 -22 -34 8 -8 58 43 54 54 -2 5 -17 -4 -32
-20z"/>
<path d="M835 50 c-17 -18 -17 -20 -1 -20 9 0 19 7 23 15 9 25 -2 27 -22 5z"/>
</g>
</svg>
